<svg width="52" height="52" viewBox="0 0 52 52" fill="none" xmlns="http://www.w3.org/2000/svg" aria-hidden="true" class="size-[52px] -translate-x-[2cqw] text-white"><mask id="a" maskUnits="userSpaceOnUse" x="0" y="0" width="52" height="52" style="mask-type:luminance"><path d="M25.51 51.02c14.09 0 25.51-11.42 25.51-25.51C51.02 11.421 39.6 0 25.51 0 11.421 0 0 11.421 0 25.51s11.421 25.51 25.51 25.51" fill="#fff"/></mask><g mask="url(#a)" fill="currentColor"><path d="M-16.908 19.166V7.379l27.296 6.824a11.54 11.54 0 0 1 8.74 11.195z"/><path d="M-3.713 31.628v11.786l14.463-5.703a13.24 13.24 0 0 0 8.381-12.315zm35.84-47.568h11.786L37.09 11.355a11.54 11.54 0 0 1-11.195 8.74zM19.66-2.748H7.876l5.703 14.463a13.24 13.24 0 0 0 12.315 8.381zM67.94 32.31v11.786l-27.296-6.824a11.54 11.54 0 0 1-8.74-11.194zM54.748 19.846V8.06l-14.463 5.704a13.24 13.24 0 0 0-8.381 12.314z"/><path d="M31.948 66.96h11.786L36.91 39.665a11.54 11.54 0 0 0-11.194-8.74z"/><path d="M19.487 53.769H7.701l5.704-14.463a13.24 13.24 0 0 1 12.314-8.381z"/><path d="M32.244 25.218c0 2.948.731 6.245 2.665 8.572-2.544-2.58-5.56-4.051-9.009-4.051-3.683 0-6.952.91-9.577 3.817 1.914-2.318 2.608-5.23 2.608-8.159s-.726-5.169-2.58-7.46c2.524 2.498 5.835 3.977 9.224 3.977 3.617 0 6.938-1.686 9.542-4.498-1.825 2.278-2.874 4.95-2.874 7.803"/></g></svg>