<svg preserveAspectRatio="none" width="100%" height="100%" overflow="visible" style="display: block;" viewBox="0 0 1148.76 78.7056" fill="none" xmlns="http://www.w3.org/2000/svg">
<g id="Group 878">
<path id="Frame 377 -&#62; search" d="M1 1C1 39.8528 573.649 39.8528 573.649 78.7056" stroke="url(#paint0_linear_0_57)" stroke-width="2"/>
<path id="Frame 878 -&#62; search" d="M287.691 1C287.691 39.8528 573.649 39.8528 573.649 78.7056" stroke="url(#paint1_linear_0_57)" stroke-width="2"/>
<path id="Frame 880 -&#62; search" d="M861.07 1C861.07 39.8528 573.648 39.8528 573.648 78.7056" stroke="url(#paint2_linear_0_57)" stroke-width="2"/>
<path id="Frame 881 -&#62; search" d="M1147.76 1C1147.76 39.8528 573.648 39.8528 573.648 78.7056" stroke="url(#paint3_linear_0_57)" stroke-width="2"/>
<g id="Frame 879 -&#62; Rectangle">
<path d="M575.078 1C575.078 0.447715 574.63 0 574.078 0C573.526 0 573.078 0.447715 573.078 1H574.078H575.078ZM574.078 1H573.078C573.078 20.4331 573.221 30.1516 573.364 39.8675C573.506 49.578 573.649 59.2859 573.649 78.7056H574.649H575.649C575.649 59.2726 575.506 49.5541 575.363 39.8381C575.221 30.1277 575.078 20.4197 575.078 1H574.078Z" fill="var(--stroke-0, black)"/>
<path d="M575.078 1C575.078 0.447715 574.63 0 574.078 0C573.526 0 573.078 0.447715 573.078 1H574.078H575.078ZM574.078 1H573.078C573.078 20.4331 573.221 30.1516 573.364 39.8675C573.506 49.578 573.649 59.2859 573.649 78.7056H574.649H575.649C575.649 59.2726 575.506 49.5541 575.363 39.8381C575.221 30.1277 575.078 20.4197 575.078 1H574.078Z" fill="url(#paint4_linear_0_57)"/>
</g>
</g>
<defs>
<linearGradient id="paint0_linear_0_57" x1="287.325" y1="1" x2="287.325" y2="78.7056" gradientUnits="userSpaceOnUse">
<stop stop-color="#2F82FF"/>
<stop offset="1" stop-color="#A2E8FF"/>
</linearGradient>
<linearGradient id="paint1_linear_0_57" x1="430.67" y1="1" x2="430.67" y2="78.7056" gradientUnits="userSpaceOnUse">
<stop stop-color="#2F82FF"/>
<stop offset="1" stop-color="#A2E8FF"/>
</linearGradient>
<linearGradient id="paint2_linear_0_57" x1="717.359" y1="1" x2="717.359" y2="78.7056" gradientUnits="userSpaceOnUse">
<stop stop-color="#2F82FF"/>
<stop offset="1" stop-color="#A2E8FF"/>
</linearGradient>
<linearGradient id="paint3_linear_0_57" x1="860.705" y1="1" x2="860.705" y2="78.7056" gradientUnits="userSpaceOnUse">
<stop stop-color="#2F82FF"/>
<stop offset="1" stop-color="#A2E8FF"/>
</linearGradient>
<linearGradient id="paint4_linear_0_57" x1="574.364" y1="1" x2="574.364" y2="78.7056" gradientUnits="userSpaceOnUse">
<stop stop-color="#2F82FF"/>
<stop offset="1" stop-color="#A2E8FF"/>
</linearGradient>
</defs>
</svg>
