<svg preserveAspectRatio="none" width="100%" height="100%" overflow="visible" style="display: block;" viewBox="0 0 28.2893 21.217" fill="none" xmlns="http://www.w3.org/2000/svg">
<path id="Logo" d="M27.9925 1.78093C27.6928 1.63125 27.5639 1.91649 27.3887 2.06128C27.3287 2.10799 27.2779 2.16867 27.2274 2.2247C26.7894 2.70144 26.2776 3.01462 25.6091 2.97722C24.6319 2.92119 23.7973 3.23429 23.0597 3.99605C22.903 3.05668 22.3821 2.49559 21.5892 2.13593C21.1742 1.949 20.7548 1.76192 20.4642 1.35532C20.2614 1.06566 20.2061 0.743094 20.1047 0.425264C20.0402 0.233756 19.9755 0.0373641 19.7588 0.00454302C19.5237 -0.0328577 19.4314 0.168038 19.3393 0.336494C18.9705 1.0236 18.8276 1.7807 18.8415 2.54711C18.8739 4.27189 19.5884 5.6458 21.0084 6.6228C21.1697 6.735 21.2111 6.84713 21.1605 7.0107C21.0637 7.34731 20.9484 7.67437 20.847 8.01098C20.7825 8.226 20.6855 8.27271 20.4597 8.17928C19.6806 7.84756 19.0074 7.35662 18.4127 6.76317C17.403 5.76754 16.4903 4.66918 15.3515 3.80912C15.088 3.61049 14.8173 3.42185 14.5401 3.2436C13.3783 2.09387 14.6923 1.14962 14.9965 1.03757C15.3146 0.920633 15.1072 0.518766 14.079 0.523422C13.0509 0.528078 12.1104 0.878576 10.9119 1.34601C10.7366 1.41623 10.5523 1.4676 10.3632 1.5095C9.27518 1.29914 8.1457 1.25243 6.96544 1.38791C4.74325 1.64018 2.96848 2.7106 1.66382 4.53813C0.0964355 6.73523 -0.272494 9.23093 0.179344 11.8343C0.654174 14.5778 2.02796 16.8494 4.13946 18.6255C6.32929 20.4668 8.85113 21.369 11.7277 21.196C13.475 21.0933 15.4206 20.855 17.615 18.9619C18.1682 19.2423 18.749 19.3546 19.7126 19.4387C20.4549 19.5089 21.1695 19.4013 21.7227 19.2846C22.5894 19.0976 22.5295 18.2796 22.216 18.1302C19.6759 16.9244 20.2335 17.4151 19.7265 17.0178C20.8498 15.6635 22.4689 14.2631 23.3715 10.4694C23.588 9.55977 23.7235 8.54343 23.7235 7.59064C23.7235 7.3998 23.7649 7.30563 23.9955 7.2822C24.6317 7.20732 25.2494 7.02993 25.8165 6.71195C27.4623 5.79586 28.1262 4.2909 28.283 2.48681C28.306 2.21111 28.2784 1.92572 27.9925 1.78093ZM13.6504 18.0177C11.1884 16.0455 9.99447 15.3956 9.50121 15.4237C9.04024 15.4518 9.12315 15.9893 9.22456 16.3398C9.33053 16.6857 9.46901 16.924 9.66254 17.2278C9.79622 17.4289 9.88849 17.7278 9.52893 17.9524C8.73602 18.4524 7.35752 17.7841 7.29288 17.7513C5.68857 16.7885 4.34699 15.5172 3.40182 13.7786C2.48908 12.1052 1.95883 10.3107 1.87136 8.3943C1.84829 7.93167 1.98205 7.76787 2.43374 7.68391C3.0284 7.57163 3.64156 7.5482 4.23629 7.63697C6.74877 8.01098 8.88783 9.15605 10.6813 10.9695C11.7048 12.0023 12.4792 13.2363 13.2769 14.4421C14.1252 15.7227 15.038 16.9427 16.1998 17.9429C16.6101 18.2934 16.9373 18.5598 17.2509 18.7562C16.3057 18.8636 14.729 18.887 13.6504 18.0177ZM14.8411 10.1926C14.8801 10.0315 15.0224 9.91338 15.1948 9.91338C15.2373 9.91349 15.2794 9.92137 15.3192 9.93666C15.3699 9.95544 15.416 9.98353 15.4529 10.0254C15.5174 10.091 15.5543 10.1844 15.5543 10.2825C15.5543 10.4882 15.393 10.6517 15.1902 10.6517C15.1046 10.6525 15.0216 10.6218 14.9564 10.5653C14.8912 10.5087 14.8482 10.4301 14.8353 10.3438C14.8274 10.2935 14.8293 10.2421 14.8411 10.1926ZM18.3767 12.247C18.1815 12.323 17.9873 12.3827 17.7995 12.3905C17.4491 12.4091 17.0665 12.2642 16.8591 12.0866C16.5365 11.8109 16.306 11.6568 16.2091 11.1752C16.1676 10.9695 16.1906 10.6517 16.2275 10.4694C16.3105 10.0768 16.2183 9.82438 15.9464 9.5954C15.7252 9.40847 15.4438 9.3571 15.135 9.3571C15.0197 9.3571 14.9138 9.30573 14.8353 9.26368C14.7062 9.19834 14.6002 9.03469 14.7017 8.83364C14.734 8.76831 14.8908 8.60931 14.9277 8.58138C15.3471 8.33827 15.8313 8.41773 16.2783 8.6C16.6932 8.77296 17.0068 9.09072 17.4586 9.53937C17.9196 10.0815 18.0025 10.2311 18.2654 10.6377C18.473 10.9555 18.6619 11.2828 18.791 11.6566C18.8567 11.852 18.7963 12.0184 18.6157 12.1357C18.5422 12.1834 18.4578 12.2154 18.3767 12.247Z" fill="var(--fill-0, #4D6BFE)"/>
</svg>
