<svg preserveAspectRatio="none" width="100%" height="100%" overflow="visible" style="display: block;" viewBox="0 0 30.3105 29.04" fill="none" xmlns="http://www.w3.org/2000/svg">
<path id="Union" d="M7.55762 6.7168C10.8837 3.396 15.7824 2.55804 19.874 4.24023C20.7791 4.57614 21.5681 5.05459 22.1836 5.49902L18.7676 7.0752C15.5863 5.74168 11.9421 6.64953 9.71777 8.87207C6.80381 11.7811 6.1422 16.7585 9.30859 20.126L9.62402 20.4492L0 29.04C0.610395 28.2001 1.36878 27.4066 2.12402 26.6133C4.25509 24.3753 6.3704 22.158 5.08008 19.0234C3.35238 14.8291 4.3584 9.91364 7.55762 6.7168ZM30.0859 0.3125C26.9176 4.67231 25.3708 6.80458 26.6123 12.1387L26.6045 12.1309C27.4605 15.7617 26.545 19.7883 23.5889 22.7422C19.8618 26.4688 13.897 27.2978 8.98535 23.9434L12.4102 22.3594C15.5448 23.5894 18.9747 23.0497 21.4395 20.5869C23.9043 18.124 24.4576 14.5366 23.2188 11.5518C22.9833 10.9858 22.2772 10.8437 21.7832 11.208L11.7041 18.6436L26.1416 4.15234V4.16602L30.3105 0C30.2356 0.105851 30.1608 0.209227 30.0859 0.3125Z" fill="var(--fill-0, white)"/>
</svg>
